<?xml version="1.0" standalone="no"?>
<!DOCTYPE svg PUBLIC "-//W3C//DTD SVG 20010904//EN"
 "http://www.w3.org/TR/2001/REC-SVG-20010904/DTD/svg10.dtd">
<svg version="1.0" xmlns="http://www.w3.org/2000/svg"
 width="300.000000pt" height="352.000000pt" viewBox="0 0 300.000000 352.000000"
 preserveAspectRatio="xMidYMid meet">
<metadata>
Created by potrace 1.10, written by Peter Selinger 2001-2011
</metadata>
<g transform="translate(0.000000,352.000000) scale(0.100000,-0.100000)"
fill="#000000" stroke="none">
<path d="M1742 3506 c-35 -12 -171 -13 -327 -1 -129 10 -236 -8 -330 -58 -11
-6 -38 -20 -59 -31 -22 -12 -74 -55 -116 -98 -83 -84 -106 -131 -115 -244 -3
-33 -9 -102 -15 -154 -5 -52 -12 -156 -16 -231 l-7 -137 -101 5 c-76 4 -117 1
-166 -12 -36 -9 -74 -19 -84 -21 -27 -5 -128 -46 -146 -59 -8 -6 -28 -17 -45
-25 -16 -8 -64 -49 -106 -90 -60 -60 -80 -86 -94 -129 -39 -118 23 -194 260
-316 90 -47 156 -71 324 -119 29 -9 59 -16 66 -16 8 0 14 -26 19 -78 12 -152
54 -292 105 -351 20 -25 41 -35 97 -48 l71 -16 17 -101 c10 -56 25 -119 33
-141 21 -57 80 -153 124 -201 20 -23 42 -51 48 -62 6 -12 49 -45 95 -73 75
-46 86 -56 105 -101 12 -28 21 -59 21 -69 0 -28 44 -73 194 -198 78 -65 187
-166 244 -226 56 -59 105 -105 108 -102 11 10 -82 120 -178 212 -95 91 -103
99 -222 195 -63 51 -83 76 -51 64 19 -8 19 1 1 34 -8 15 -27 58 -42 97 -31 82
-41 98 -115 190 -70 87 -305 316 -321 312 -15 -3 -33 126 -44 306 -6 114 -5
127 9 121 8 -3 25 -1 36 6 26 13 27 1 5 -42 -27 -52 -4 -110 73 -184 35 -33
63 -64 63 -68 0 -15 47 -69 71 -82 17 -8 32 -28 40 -55 16 -49 46 -67 159
-100 41 -12 80 -26 85 -30 6 -4 48 -22 95 -40 76 -30 94 -34 173 -32 48 2 87
0 87 -3 0 -3 -13 -26 -30 -51 -16 -24 -30 -50 -30 -56 0 -25 -109 -67 -171
-67 -40 0 -59 -14 -33 -24 29 -11 95 -6 127 10 18 9 54 32 80 51 27 19 51 32
53 30 2 -2 -3 -52 -13 -110 -20 -126 -14 -144 38 -114 36 20 42 18 75 -34 20
-33 22 -42 12 -53 -8 -7 -29 -43 -47 -80 l-35 -67 13 -130 c14 -153 34 -221
26 -89 -4 76 1 120 29 235 2 10 18 40 69 135 27 50 31 68 40 208 9 119 8 163
-2 200 -6 26 -16 48 -21 50 -5 2 2 13 15 25 59 53 129 208 146 326 4 31 15 99
23 151 12 70 16 168 16 370 0 199 4 285 13 312 17 47 31 62 25 26 -3 -16 -1
-28 3 -28 5 0 9 6 9 13 0 23 31 43 140 92 314 140 399 191 493 298 57 65 71
102 41 114 -11 4 -41 -19 -97 -75 -103 -101 -208 -155 -325 -166 -26 -3 -96
-10 -157 -16 -207 -20 -330 -25 -540 -20 -199 5 -208 6 -180 21 17 8 73 25
125 37 254 58 302 62 398 37 28 -7 52 -9 52 -4 0 17 -47 34 -109 39 -37 3 -66
10 -68 17 -3 9 9 11 46 6 35 -4 51 -2 51 6 0 7 -22 11 -60 11 -54 0 -62 3 -69
23 -11 28 5 35 82 36 31 1 57 5 57 11 0 5 -15 38 -34 72 -42 76 -133 287 -141
327 -12 53 -109 301 -123 310 -4 3 -29 39 -56 79 -42 63 -51 72 -79 73 -21 1
-25 3 -12 6 11 3 24 9 30 14 19 18 56 8 93 -25 36 -33 63 -79 128 -221 15 -33
42 -84 60 -112 70 -110 135 -259 179 -408 15 -49 33 -107 41 -127 7 -21 16
-52 19 -69 9 -52 41 -89 78 -90 18 0 48 -6 67 -14 30 -11 40 -10 70 5 19 9 75
37 124 60 107 51 176 96 176 114 0 8 -7 19 -15 26 -12 10 -29 4 -92 -31 -151
-83 -266 -139 -299 -145 -56 -10 -62 -1 -120 191 -49 164 -76 239 -107 305
-17 36 -32 71 -33 78 -1 7 -7 19 -13 26 -6 7 -22 33 -36 57 -22 39 -45 85
-143 288 -53 109 -110 140 -200 107z m-167 -52 c72 -3 142 -10 156 -15 42 -16
127 -148 175 -273 24 -61 44 -115 44 -120 0 -13 109 -285 136 -338 30 -59 30
-68 -1 -68 -14 0 -39 -13 -57 -29 -30 -27 -31 -30 -18 -60 7 -17 11 -33 9 -35
-2 -2 -66 -16 -142 -30 -156 -30 -177 -37 -229 -72 -33 -23 -40 -25 -90 -15
-33 6 -70 6 -92 1 -21 -5 -44 -6 -51 -4 -26 10 -25 -15 1 -28 15 -7 26 -17 26
-23 -1 -6 -72 -16 -159 -23 -187 -16 -221 -28 -241 -88 -11 -33 -11 -44 2 -72
9 -18 16 -46 16 -62 0 -130 58 -383 112 -495 24 -47 66 -95 85 -95 7 0 24 -18
38 -40 14 -21 38 -49 55 -61 17 -13 30 -32 30 -44 0 -12 9 -31 20 -43 11 -12
20 -30 20 -40 0 -11 7 -26 16 -33 14 -11 19 -10 34 9 10 12 21 41 25 65 14 90
35 143 71 180 20 20 44 37 53 37 9 0 25 6 36 14 11 7 36 16 55 19 19 3 64 11
99 17 36 5 74 16 85 24 32 20 125 13 179 -13 27 -13 63 -43 86 -72 44 -56 44
-46 10 -222 -10 -53 -25 -110 -32 -125 -8 -15 -17 -39 -21 -54 -3 -15 -27 -57
-52 -94 l-47 -68 13 -69 c11 -64 8 -246 -6 -320 l-6 -28 -39 36 c-23 20 -49
35 -64 35 l-25 0 6 83 c5 57 3 90 -5 106 -9 17 -10 30 -1 57 19 56 -2 71 -103
76 -69 3 -102 12 -212 55 -71 28 -157 59 -190 70 -53 17 -62 24 -80 60 -11 22
-39 60 -62 84 -178 185 -200 218 -184 273 14 54 -5 189 -32 224 -6 7 -11 52
-11 100 -2 101 -27 166 -80 207 -42 32 -61 31 -87 -4 -15 -20 -33 -31 -61 -35
-46 -7 -88 -45 -88 -78 0 -38 46 -125 93 -175 24 -27 52 -64 62 -83 9 -19 30
-48 45 -65 27 -28 29 -36 30 -125 2 -124 3 -120 -21 -120 -36 0 -88 31 -109
64 -32 53 -60 154 -72 268 -14 126 -26 147 -89 158 -78 13 -223 60 -249 80
-14 11 -61 38 -105 60 -125 64 -197 113 -233 159 l-32 43 21 37 c40 65 71 102
94 111 13 5 76 45 142 89 146 99 192 114 360 115 167 1 157 -13 172 241 16
281 34 407 65 460 59 99 234 219 340 231 28 3 55 8 60 12 20 12 91 18 131 10
22 -4 99 -10 170 -14z m1386 -853 c-19 -34 -166 -157 -209 -174 -66 -26 -73
-20 -13 13 64 36 143 95 190 144 39 41 46 44 32 17z m-2641 -146 c0 -2 -17
-14 -37 -25 -56 -30 -74 -42 -108 -72 -16 -16 -34 -28 -40 -28 -5 1 12 20 40
45 27 24 53 41 57 39 5 -3 8 -1 8 4 0 4 15 16 33 25 34 17 47 20 47 12z m1465
-105 l160 -7 -116 -1 c-148 -2 -299 8 -299 21 0 6 18 6 48 2 26 -5 119 -11
207 -15z m825 14 c0 -6 -211 -107 -249 -119 -28 -9 -81 37 -81 71 0 20 7 22
133 34 72 6 137 13 142 15 17 6 55 5 55 -1z m-402 -54 c7 -11 17 -20 23 -20 6
0 8 9 4 20 -3 11 -2 20 3 20 6 0 10 -25 11 -56 0 -55 0 -56 -19 -39 -13 12
-46 19 -107 25 -97 8 -113 1 -113 -48 0 -23 2 -24 43 -16 23 4 74 8 112 9 l70
0 -2 -55 c-1 -30 -4 -143 -6 -250 -4 -201 -14 -335 -27 -358 -4 -9 -21 15 -46
67 -21 44 -42 81 -46 81 -14 0 -8 -37 7 -50 29 -24 15 -28 -25 -7 -22 12 -40
26 -40 31 0 4 11 17 25 28 35 27 33 80 -5 149 -65 120 -132 265 -132 291 -1
29 -17 51 -19 26 -4 -54 32 -141 143 -341 36 -65 15 -120 -56 -147 -23 -8 -39
-7 -83 10 -70 26 -136 27 -131 3 2 -14 15 -19 56 -21 28 -2 52 -7 52 -12 0
-12 -75 -23 -110 -15 -74 16 -79 113 -7 148 34 17 49 37 28 37 -24 0 -83 -33
-97 -55 -15 -23 -15 -30 -2 -73 10 -29 24 -51 38 -59 l24 -12 -30 -6 c-16 -4
-35 -8 -41 -11 -7 -2 -13 4 -13 13 0 13 -6 11 -28 -10 -18 -17 -34 -25 -48
-21 -27 7 -136 -106 -134 -139 4 -42 0 -57 -15 -57 -8 0 -15 5 -15 10 0 6 -11
10 -23 10 -13 0 -32 9 -42 20 -10 11 -27 22 -37 26 -16 5 -19 12 -14 35 5 24
1 31 -24 44 -16 8 -38 16 -50 18 -12 2 -28 17 -36 33 -22 41 -74 184 -67 184
3 0 0 6 -6 14 -10 12 -37 142 -39 186 -8 186 -16 260 -29 256 -7 -3 -13 1 -13
9 0 7 15 18 33 24 34 11 245 30 337 30 30 0 107 5 170 12 108 10 371 24 520
27 55 2 67 -1 78 -18z m92 -79 c0 -17 -4 -33 -10 -36 -6 -4 -10 8 -10 29 0 20
5 36 10 36 6 0 10 -13 10 -29z m-1332 -342 c6 -30 14 -76 17 -104 l6 -50 -21
21 c-16 15 -23 37 -26 75 -5 55 -31 129 -45 129 -4 0 -11 -4 -14 -10 -9 -15
-25 -12 -25 5 0 8 5 26 12 41 l12 26 37 -39 c27 -30 40 -54 47 -94z m-160 49
c7 -7 12 -31 12 -55 0 -23 5 -52 11 -65 9 -21 112 -98 149 -113 8 -3 24 -33
34 -67 19 -58 19 -61 1 -74 -15 -11 -22 -11 -44 1 -32 17 -89 75 -73 75 19 0
14 14 -17 46 -33 34 -76 115 -84 159 -20 107 -18 122 11 93z m-48 -35 c0 -21
13 -66 30 -100 16 -35 26 -63 21 -63 -10 0 -69 119 -71 145 -4 36 0 55 10 55
6 0 10 -17 10 -37z m134 -19 c11 -28 6 -64 -8 -64 -16 0 -26 21 -26 56 0 27
24 33 34 8z m577 -532 c16 -18 15 -19 -6 -19 -17 0 -22 4 -18 16 4 14 3 14
-10 -1 -18 -22 -26 -15 -19 17 5 27 23 23 53 -13z m-260 -477 c89 -90 142
-155 134 -163 -2 -2 -28 10 -58 27 -73 42 -217 217 -217 264 0 12 22 -8 141
-128z"/>
<path d="M732 2124 c-17 -12 -22 -25 -22 -59 0 -56 14 -64 51 -29 33 32 37 64
11 87 -16 15 -20 15 -40 1z m38 -34 c0 -13 -7 -20 -20 -20 -23 0 -26 10 -8 28
18 18 28 15 28 -8z"/>
<path d="M2019 1486 c-2 -3 -78 -6 -169 -8 -162 -4 -166 -5 -212 -33 -26 -16
-55 -44 -64 -61 -16 -30 -16 -34 -1 -58 23 -34 49 -47 105 -51 26 -1 74 -6
108 -10 47 -6 67 -4 93 9 18 10 49 16 69 15 72 -5 101 1 132 28 17 14 36 37
41 51 12 31 -5 88 -29 101 -22 11 -68 22 -73 17z m2 -62 c-43 -27 -45 -27
-193 -22 -89 4 -154 10 -161 17 -6 6 -9 12 -7 13 3 1 86 5 185 8 99 3 189 7
200 8 12 1 3 -9 -24 -24z m72 -11 c-4 -21 -13 -48 -22 -60 -17 -23 -25 -24
-132 -23 -54 1 -68 -2 -73 -16 -5 -14 -15 -16 -59 -10 -82 9 -94 13 -133 40
-21 14 -42 22 -47 19 -9 -6 8 -23 43 -43 8 -5 11 -12 7 -16 -8 -8 -80 29 -85
44 -1 5 6 19 16 32 l18 23 90 -18 c67 -13 112 -16 181 -11 105 7 128 14 163
50 34 34 40 32 33 -11z"/>
<path d="M1615 2239 c-16 -5 -42 -6 -57 -3 -27 5 -201 -26 -253 -46 -14 -5
-37 -10 -51 -10 -13 0 -24 -5 -24 -11 0 -12 39 -10 175 11 96 15 142 15 161
-1 14 -11 18 -11 29 4 8 12 26 17 59 17 42 0 46 2 46 25 0 21 -5 25 -27 24
-16 0 -41 -5 -58 -10z"/>
<path d="M2045 2167 c-45 -26 -85 -61 -85 -74 0 -18 15 -16 30 2 10 12 22 14
44 9 17 -4 43 -6 59 -5 15 1 27 -4 27 -10 0 -8 -18 -10 -60 -6 -33 3 -60 2
-60 -2 0 -3 29 -8 64 -9 49 -3 71 1 92 15 17 11 29 14 31 7 2 -6 10 -20 18
-30 13 -18 14 -17 15 14 0 18 -5 42 -11 54 -22 40 -120 62 -164 35z"/>
<path d="M1492 2139 c-23 -12 -63 -44 -88 -72 -37 -41 -51 -51 -80 -51 -21 -1
-34 -6 -34 -14 0 -10 11 -12 46 -6 34 5 56 16 83 42 35 34 38 35 126 36 58 1
98 7 112 16 18 11 25 12 35 2 6 -6 20 -12 30 -12 16 0 17 -3 7 -22 -6 -12 -32
-43 -57 -70 -25 -26 -39 -48 -31 -48 8 0 38 26 66 57 41 45 53 65 53 91 0 17
-4 32 -10 32 -5 0 -10 -7 -10 -15 0 -20 1 -20 -66 20 -69 41 -118 45 -182 14z
m137 -18 c18 -11 5 -31 -20 -31 -18 0 -26 20 -12 33 8 9 15 9 32 -2z"/>
<path d="M1630 2054 c-21 -8 -58 -10 -92 -7 -40 4 -58 2 -58 -6 0 -17 151 -15
176 3 27 20 15 24 -26 10z"/>
<path d="M2185 2020 c-3 -5 -44 -10 -91 -10 -54 0 -83 -4 -79 -10 9 -15 167
-12 187 4 10 7 15 16 11 19 -9 10 -21 8 -28 -3z"/>
<path d="M1323 1973 c-24 -2 -43 -9 -43 -14 0 -15 93 -6 98 9 2 6 0 11 -5 10
-4 -1 -27 -3 -50 -5z"/>
<path d="M2160 1946 c0 -7 7 -19 15 -26 8 -7 15 -22 15 -33 0 -15 3 -18 11
-10 7 7 6 21 -5 47 -15 36 -36 49 -36 22z"/>
<path d="M1792 875 c-29 -24 -47 -71 -32 -80 5 -3 17 10 29 28 11 17 28 42 37
55 22 29 3 28 -34 -3z"/>
</g>
</svg>
